ply
format ascii 1.0
element vertex 105
property float32 x
property float32 y
property float32 z
element face 84
property list uint8 int32 vertex_indices
end_header
896.994 47.788233665774975 82.2656
896.84196 48.7601 81.30570000000002
896.994 49.73196633422503 82.2656
897.1460400000001 48.7601 83.2255
906.593 48.7601 80.7452
906.593 49.053803613352834 80.06661347515332
905.8596567487185 48.84691711584412 80.78277590180566
906.593 48.46639638664717 81.42378652484668
907.3263432512814 48.67328288415588 80.70762409819433
907.539 55.4902 83.6581
907.539 56.55784503951453 83.6581
907.37198 55.4902 82.60360000000001
907.539 54.42255496048547 83.6581
907.70602 55.4902 84.7126
896.994 55.4902 85.3283
896.994 54.73987 86.59255
895.5238560711957 55.4902 85.3283
896.994 56.24053 84.06405
898.4641439288043 55.4902 85.3283
896.994 42.8477 77.825
896.994 42.01474539139279 77.825
896.8637 42.8477 77.0023
896.994 43.68065460860721 77.825
897.1243000000001 42.8477 78.6477
905.221 42.8477 76.522
905.221 42.15044925577304 77.3018821131908
904.5748270968231 43.461020431809466 77.07033688360812
905.221 43.544950744226966 75.74211788680921
905.8671729031769 42.23437956819054 75.97366311639189
896.994 38.0305 72.2152
896.994 37.373106240066136 72.2152
896.89116 38.0305 71.5659
896.994 38.68789375993387 72.2152
897.09684 38.0305 72.86449999999999
903.487 38.0305 71.1868
903.487 37.255264219694084 71.68066614860048
902.8363819877993 38.37936184634246 71.73441839100465
903.487 38.80573578030592 70.69293385139953
904.1376180122006 37.681638153657545 70.63918160899536
896.994 34.5348 65.6995
896.994 34.08121503375883 65.6995
896.92304 34.5348 65.2515
896.994 34.98838496624116 65.6995
897.06496 34.5348 66.14750000000001
901.474 34.5348 64.9899
901.474 33.76466540295686 65.231560355121
900.8025813341886 34.668929366050854 65.41734977852703
901.474 35.304934597043136 64.748239644879
902.1454186658115 34.40067063394914 64.56245022147299
896.994 32.5246 58.5837
896.994 32.29365787651449 58.5837
896.95788 32.5246 58.3556
896.994 32.75554212348551 58.5837
897.03012 32.5246 58.8118
899.275 32.5246 58.2225
899.275 31.786555906223082 58.26773614750405
898.571632540275 32.53855450253533 58.45017275168317
899.275 33.26264409377691 58.17726385249594
899.978367459725 32.51064549746467 57.994827248316824
896.994 32.0943 51.202
896.994 35.032154992885026 49.253740728963294
893.9785132223138 33.10337149934009 52.723617675114056
896.994 29.156445007114964 53.1502592710367
900.0094867776862 31.085228500659905 49.68038232488594
915.252 48.7601 76.333
915.252 49.0155735185878 75.63909317642758
914.5348268071797 48.9291095254723 76.39522371171532
915.252 48.5046264814122 77.02690682357242
915.9691731928202 48.591090474527704 76.27077628828468
917.053 55.4902 78.8108
917.053 54.85385241358056 80.13610918757027
915.6505687241794 55.88783850437068 79.00172624188897
917.053 56.12654758641944 77.48549081242973
918.4554312758206 55.092561495629326 78.61987375811103
912.642 42.8477 72.7405
912.642 42.34066419627524 73.27868369330665
911.9801655010504 43.087674018054436 72.96658529509637
912.642 43.354735803724765 72.20231630669335
913.3038344989498 42.60772598194557 72.51441470490363
909.345 38.0305 68.2021
909.345 37.41425258578189 68.61076109304592
908.712484573706 38.24217121691314 68.52129319530735
909.345 38.64674741421812 67.79343890695408
909.9775154262941 37.818828783086865 67.88290680469265
905.515 34.5348 62.9307
905.515 33.83674598375874 63.17445565574864
904.9052418599969 34.672668703154294 63.32552079566628
905.515 35.232854016241255 62.686944344251366
906.1247581400031 34.3969312968457 62.535879204333725
901.333 32.5246 57.174
901.333 34.280705937857775 54.8535023924984
899.2969389568581 34.18254889665534 58.42870239343015
901.333 30.76849406214222 59.4944976075016
903.3690610431419 30.86665110334466 55.91929760656985
922.125 48.7601 69.4607
922.125 48.95117058745861 68.7464167357356
921.4283270056906 48.99938669312818 69.52470912819106
922.125 48.56902941254139 70.17498326426441
922.8216729943094 48.52081330687182 69.39669087180894
924.602 55.4902 71.261
924.602 55.0059567844979 72.64909288318188
923.2630286246151 56.06332632973907 71.46093801579444
924.602 55.974443215502106 69.87290711681811
925.9409713753848 54.91707367026093 71.06106198420555
918.532 42.8477 66.8506
3 0 1 2
3 0 2 3
3 0 3 4
3 0 4 1
3 5 6 7
3 5 7 8
3 5 8 9
3 5 9 6
3 10 11 12
3 10 12 13
3 10 13 14
3 10 14 11
3 15 16 17
3 15 17 18
3 15 18 19
3 15 19 16
3 20 21 22
3 20 22 23
3 20 23 24
3 20 24 21
3 25 26 27
3 25 27 28
3 25 28 29
3 25 29 26
3 30 31 32
3 30 32 33
3 30 33 34
3 30 34 31
3 35 36 37
3 35 37 38
3 35 38 39
3 35 39 36
3 40 41 42
3 40 42 43
3 40 43 44
3 40 44 41
3 45 46 47
3 45 47 48
3 45 48 49
3 45 49 46
3 50 51 52
3 50 52 53
3 50 53 54
3 50 54 51
3 55 56 57
3 55 57 58
3 55 58 59
3 55 59 56
3 60 61 62
3 60 62 63
3 60 63 64
3 60 64 61
3 65 66 67
3 65 67 68
3 65 68 69
3 65 69 66
3 70 71 72
3 70 72 73
3 70 73 74
3 70 74 71
3 75 76 77
3 75 77 78
3 75 78 79
3 75 79 76
3 80 81 82
3 80 82 83
3 80 83 84
3 80 84 81
3 85 86 87
3 85 87 88
3 85 88 89
3 85 89 86
3 90 91 92
3 90 92 93
3 90 93 94
3 90 94 91
3 95 96 97
3 95 97 98
3 95 98 99
3 95 99 96
3 100 101 102
3 100 102 103
3 100 103 104
3 100 104 101
