ply
format ascii 1.0
element vertex 84
property float32 x
property float32 y
property float32 z
element face 28
property list uint8 int32 vertex_indices
end_header
-19.6041 -32.4630926786574 -0.14684877228681664
-19.6041 -33.32430732134261 0.14684877228681664
-17.4514 -31.6 3.79354
-17.4514 -31.19418087586303 3.7018820321319454
-17.4514 -32.00581912413697 3.885197967868055
-14.7998 -30.8937 6.92071
-14.7998 -30.51690314951743 6.898321559334857
-14.7998 -31.27049685048257 6.943098440665143
-11.9646 -30.7459 9.40818
-11.9646 -30.407417518176796 9.46380038352803
-11.9646 -31.0843824818232 9.35255961647197
-9.19161 -31.0733 11.4006
-9.19161 -30.778466111389818 11.51645282086768
-9.19161 -31.36813388861018 11.28474717913232
-6.61235 -31.7459 13.1123
-6.61235 -31.47720093669804 13.251194795113602
-6.61235 -32.01459906330196 12.973405204886397
-4.22708 -32.6 14.7646
-4.22708 -32.327944962904 14.896781698153305
-4.22708 -32.872055037096004 14.632418301846695
-1.91864 -33.4541 16.5225
-1.91864 -33.22516775772913 16.31692147784585
-1.91864 -33.68303224227086 16.728078522154153
0.769695 -32.4541 17.6361
0.769695 -32.28120616478955 17.381582356528128
0.769695 -32.62699383521044 17.89061764347187
3.59913 -31.4541 18.3154
3.59913 -31.38561694535407 18.015430422050233
3.59913 -31.52258305464593 18.615369577949767
6.5 -30.4541 18.5437
6.5 -30.52258305464593 18.243730422050234
6.5 -30.38561694535407 18.84366957794977
9.40087 -29.4541 18.3154
9.40087 -29.626993576847706 18.06088273686485
9.40087 -29.281206423152295 18.56991726313515
12.2303 -28.4541 17.6361
12.2303 -28.68302996699596 17.430523521016557
12.2303 -28.22517003300404 17.84167647898344
14.9186 -27.4541 16.5225
14.9186 -27.711172079379015 16.35341812721717
14.9186 -27.197027920620986 16.69158187278283
17.3997 -26.4541 15.0021
17.3997 -26.72605607675465 14.85819266760787
17.3997 -26.182143923245352 15.14600733239213
19.6123 -25.4541 13.1123
19.6123 -25.73447793006954 12.985581239234593
19.6123 -25.17372206993046 13.239018760765406
21.5021 -24.4541 10.8997
21.5021 -24.739480931273196 10.784676207236746
21.5021 -24.168719068726805 11.014723792763252
23.0225 -23.4541 8.41864
23.0225 -23.742483240288898 8.311367737930649
23.0225 -23.165716759711103 8.525912262069351
24.1361 -22.4541 5.73031
24.1361 -22.74420239184905 5.627780032285876
24.1361 -22.16399760815095 5.832839967714125
24.8154 -21.4541 2.90087
24.8154 -21.744988840916392 2.8005935863194087
24.8154 -21.16321115908361 3.001146413680591
25.0437 -20.4541 -7.60674e-09
25.0437 -20.744988839398346 -0.1002764212899187
25.0437 -20.163211160601655 0.1002764060764387
24.8154 -19.4541 -2.90087
24.8154 -19.74420239184905 -3.003399967714124
24.8154 -19.16399760815095 -2.798340032285876
24.1361 -18.4541 -5.73031
24.1361 -18.742483240288898 -5.837582262069351
24.1361 -18.165716759711103 -5.623037737930649
23.0225 -17.4541 -8.41864
23.0225 -17.739480931273196 -8.533663792763253
23.0225 -17.168719068726805 -8.303616207236747
21.5021 -16.4541 -10.8997
21.5021 -16.73447793006954 -11.026418760765406
21.5021 -16.17372206993046 -10.772981239234593
19.6123 -15.4541 -13.1123
19.6123 -15.72605607675465 -13.25620733239213
19.6123 -15.18214392324535 -12.96839266760787
17.3997 -14.4541 -15.0021
17.3997 -14.757935673417228 -14.912460613237817
17.3997 -14.150264326582773 -15.091739386762184
15.3056 -15.1267 -17.2819
15.3056 -15.466646552162457 -17.236043421705745
15.3056 -14.786753447837542 -17.327756578294256
12.9038 -15.4541 -19.709
3 0 1 2
3 3 4 5
3 6 7 8
3 9 10 11
3 12 13 14
3 15 16 17
3 18 19 20
3 21 22 23
3 24 25 26
3 27 28 29
3 30 31 32
3 33 34 35
3 36 37 38
3 39 40 41
3 42 43 44
3 45 46 47
3 48 49 50
3 51 52 53
3 54 55 56
3 57 58 59
3 60 61 62
3 63 64 65
3 66 67 68
3 69 70 71
3 72 73 74
3 75 76 77
3 78 79 80
3 81 82 83
