ply
format ascii 1.0
element vertex 85
property float32 x
property float32 y
property float32 z
element face 68
property list uint8 int32 vertex_indices
end_header
908.722 33.86840901164913 60.04368192822066
908.2579503228102 34.784142080573545 60.242190792955356
908.722 35.20119098835087 59.40311807177934
909.1860496771898 34.28545791942645 59.20460920704464
902.966 32.5246 55.5409
902.966 33.421559379656316 52.77250580035166
901.259359392432 34.76694070608072 56.267418112543275
902.966 31.62764062034368 58.30929419964834
904.672640607568 30.282259293919285 54.814381887456726
926.537 48.7601 60.8012
896.994 35.032154992885026 49.253740728963294
893.9785132223138 33.10337149934009 52.723617675114056
896.994 29.156445007114964 53.1502592710367
900.0094867776862 31.085228500659905 49.68038232488594
915.252 48.7601 76.333
889.612 34.005662193115555 48.69702195637891
887.7259032344813 30.61698358244543 50.074126419550375
889.612 31.043537806884448 53.706978043621085
891.4980967655187 34.43221641755457 52.32987358044962
867.451 48.7601 60.8012
882.496 34.5348 51.941448172896514
882.29498 33.8232 51.202
882.496 34.5348 50.46255182710348
882.69702 35.246399999999994 51.202
889.612 32.5246 51.202
875.98 38.0305 51.94144691824363
875.63043 37.37890000000001 51.202
875.98 38.0305 50.462553081756376
876.32957 38.6821 51.202
882.496 34.5348 51.202
870.371 42.8477 51.941366599462
869.88928 42.2868 51.202
870.371 42.8477 50.462633400537996
870.85272 43.40860000000001 51.202
875.98 38.0305 51.202
865.93 48.7601 50.46256633150769
865.25699 48.4538 51.202
865.93 48.7601 51.94143366849231
866.6030099999999 49.0664 51.202
862.867 55.4902 51.202
862.867 55.4902 52.67217965653862
861.60275 54.7398 51.202
862.867 55.4902 49.73182034346138
864.1312499999999 56.2406 51.202
870.371 42.8477 51.202
837.334 116.4444969309475 53.37868193158414
831.2651063263145 113.633615524383 59.37717596931811
837.334 114.5355030690525 65.93991806841586
843.4028936736854 117.34638447561699 59.941424030681894
818.557 175.49 68.7778
818.557 175.90319676678794 62.73867742198289
812.5429725083435 174.80370450073164 68.73084366194006
818.557 175.07680323321208 74.81692257801711
824.5710274916565 176.17629549926838 68.82475633805994
811.678 235.49 72.883
811.678 236.02574713355875 85.21793016635617
799.6666866063698 232.63509155858134 73.00699818997228
811.678 234.95425286644127 60.548069833643815
823.6893133936302 238.34490844141868 72.75900181002771
840.254 115.49 78.095
811.678 295.49 66.883
805.678 295.49 72.883
811.678 295.49 78.883
817.678 295.49 72.883
811.678 355.49 72.883
811.678 358.13174678642554 78.89516838057703
805.1243288944287 355.1076799293651 73.05099143903698
811.678 352.8482532135745 66.87083161942296
818.2316711055713 355.87232007063494 72.71500856096301
815.854 295.49 99.247
811.678 415.49 66.883
805.678 415.49 72.883
811.678 415.49 78.883
817.678 415.49 72.883
811.678 475.49 72.883
811.678 475.49 66.883
805.678 475.49 72.883
811.678 475.49 78.883
817.678 475.49 72.883
811.678 535.49 72.883
811.678 535.49 66.883
805.678 535.49 72.883
811.678 535.49 78.883
817.678 535.49 72.883
811.678 595.49 72.883
3 0 1 2
3 0 2 3
3 0 3 4
3 0 4 1
3 5 6 7
3 5 7 8
3 5 8 9
3 5 9 6
3 10 11 12
3 10 12 13
3 10 13 14
3 10 14 11
3 15 16 17
3 15 17 18
3 15 18 19
3 15 19 16
3 20 21 22
3 20 22 23
3 20 23 24
3 20 24 21
3 25 26 27
3 25 27 28
3 25 28 29
3 25 29 26
3 30 31 32
3 30 32 33
3 30 33 34
3 30 34 31
3 35 36 37
3 35 37 38
3 35 38 39
3 35 39 36
3 40 41 42
3 40 42 43
3 40 43 44
3 40 44 41
3 45 46 47
3 45 47 48
3 45 48 49
3 45 49 46
3 50 51 52
3 50 52 53
3 50 53 54
3 50 54 51
3 55 56 57
3 55 57 58
3 55 58 59
3 55 59 56
3 60 61 62
3 60 62 63
3 60 63 64
3 60 64 61
3 65 66 67
3 65 67 68
3 65 68 69
3 65 69 66
3 70 71 72
3 70 72 73
3 70 73 74
3 70 74 71
3 75 76 77
3 75 77 78
3 75 78 79
3 75 79 76
3 80 81 82
3 80 82 83
3 80 83 84
3 80 84 81
