ply
format ascii 1.0
element vertex 51
property float32 x
property float32 y
property float32 z
element face 17
property list uint8 int32 vertex_indices
end_header
908.722 33.86840901164913 60.04368192822066
908.722 35.20119098835087 59.40311807177934
902.966 32.5246 55.5409
902.966 33.421559379656316 52.77250580035166
902.966 31.62764062034368 58.30929419964834
926.537 48.7601 60.8012
896.994 35.032154992885026 49.253740728963294
896.994 29.156445007114964 53.1502592710367
915.252 48.7601 76.333
889.612 34.005662193115555 48.69702195637891
889.612 31.043537806884448 53.706978043621085
867.451 48.7601 60.8012
882.496 34.5348 51.941448172896514
882.496 34.5348 50.46255182710348
889.612 32.5246 51.202
875.98 38.0305 51.94144691824363
875.98 38.0305 50.46255308175637
882.496 34.5348 51.202
870.371 42.8477 51.941366599462
870.371 42.8477 50.462633400537996
875.98 38.0305 51.202
865.93 48.7601 50.46256633150769
865.93 48.7601 51.94143366849231
862.867 55.4902 51.202
862.867 55.4902 52.67217965653862
862.867 55.4902 49.73182034346138
870.371 42.8477 51.202
837.334 116.4444969309475 53.37868193158414
837.334 114.5355030690525 65.93991806841586
818.557 175.49 68.7778
818.557 175.90319676678794 62.73867742198289
818.557 175.07680323321208 74.81692257801711
811.678 235.49 72.883
811.678 236.02574713355875 85.21793016635617
811.678 234.95425286644127 60.548069833643815
840.254 115.49 78.095
811.678 295.49 66.883
811.678 295.49 78.883
811.678 355.49 72.883
811.678 358.13174678642554 78.89516838057703
811.678 352.8482532135745 66.87083161942296
815.854 295.49 99.247
811.678 415.49 66.883
811.678 415.49 78.883
811.678 475.49 72.883
811.678 475.49 66.883
811.678 475.49 78.883
811.678 535.49 72.883
811.678 535.49 66.883
811.678 535.49 78.883
811.678 595.49 72.883
3 0 1 2
3 3 4 5
3 6 7 8
3 9 10 11
3 12 13 14
3 15 16 17
3 18 19 20
3 21 22 23
3 24 25 26
3 27 28 29
3 30 31 32
3 33 34 35
3 36 37 38
3 39 40 41
3 42 43 44
3 45 46 47
3 48 49 50
